<svg width="24" height="24" viewBox="0 0 24 24" fill="none" xmlns="http://www.w3.org/2000/svg">
  <path d="M20.4095 5.62C21.4281 6.65527 22 8.05693 22 9.51812C22 10.9793 21.4281 12.381 20.4095 13.4163L11.9973 22L3.58514 13.4163C2.82865 12.6452 2.31362 11.6654 2.10452 10.5995C1.89542 9.53358 2.00154 8.4289 2.40961 7.42374C2.81767 6.41859 3.50954 5.55762 4.39861 4.94862C5.28768 4.33961 6.33444 4.00964 7.40786 4C8.84321 4.00882 10.2171 4.59103 11.2306 5.62C11.5262 5.91613 11.7838 6.24874 11.9973 6.61C12.2109 6.24874 12.4685 5.91613 12.7641 5.62C13.2635 5.10706 13.8586 4.69974 14.5149 4.42172C15.1711 4.1437 15.8754 4.00053 16.5868 4.00053C17.2982 4.00053 18.0025 4.1437 18.6588 4.42172C19.315 4.69974 19.9102 5.10706 20.4095 5.62Z" stroke="currentColor" stroke-width="1.7" stroke-linecap="round" stroke-linejoin="round"/>
</svg>
