<svg width="24" height="24" viewBox="0 0 24 24" fill="none" xmlns="http://www.w3.org/2000/svg">
<path d="M8.5 12C8.5 12.663 8.23661 13.2989 7.76777 13.7678C7.29893 14.2366 6.66304 14.5 6 14.5C5.33696 14.5 4.70107 14.2366 4.23223 13.7678C3.76339 13.2989 3.5 12.663 3.5 12C3.5 11.337 3.76339 10.7011 4.23223 10.2322C4.70107 9.76339 5.33696 9.5 6 9.5C6.66304 9.5 7.29893 9.76339 7.76777 10.2322C8.23661 10.7011 8.5 11.337 8.5 12Z" stroke="currentColor" stroke-width="1.5"/>
<path d="M13.5 6.5L8.5 10M13.5 17.5L8.5 14" stroke="currentColor" stroke-width="1.5" stroke-linecap="round"/>
<path d="M18.5 18.5C18.5 19.163 18.2366 19.7989 17.7678 20.2678C17.2989 20.7366 16.663 21 16 21C15.337 21 14.7011 20.7366 14.2322 20.2678C13.7634 19.7989 13.5 19.163 13.5 18.5C13.5 17.837 13.7634 17.2011 14.2322 16.7322C14.7011 16.2634 15.337 16 16 16C16.663 16 17.2989 16.2634 17.7678 16.7322C18.2366 17.2011 18.5 17.837 18.5 18.5ZM18.5 5.5C18.5 6.16304 18.2366 6.79893 17.7678 7.26777C17.2989 7.73661 16.663 8 16 8C15.337 8 14.7011 7.73661 14.2322 7.26777C13.7634 6.79893 13.5 6.16304 13.5 5.5C13.5 4.83696 13.7634 4.20107 14.2322 3.73223C14.7011 3.26339 15.337 3 16 3C16.663 3 17.2989 3.26339 17.7678 3.73223C18.2366 4.20107 18.5 4.83696 18.5 5.5Z" stroke="currentColor" stroke-width="1.5"/>
</svg>
